<svg width="34" height="34" viewBox="0 0 34 34" fill="none" xmlns="http://www.w3.org/2000/svg">
<g clip-path="url(#clip0_211_663)">
<path d="M24.324 33.9999C24.1375 34.001 23.9527 33.9652 23.7801 33.8947C23.6075 33.8242 23.4505 33.7204 23.3182 33.5891L11.744 22.0149C11.0843 21.3569 10.561 20.5753 10.2039 19.7147C9.8468 18.8542 9.66299 17.9316 9.66299 16.9999C9.66299 16.0682 9.8468 15.1457 10.2039 14.2851C10.561 13.4246 11.0843 12.6429 11.744 11.9849L23.3182 0.41077C23.4502 0.278682 23.6071 0.173904 23.7796 0.102419C23.9522 0.0309337 24.1372 -0.00585937 24.324 -0.00585937C24.5108 -0.00585938 24.6958 0.0309337 24.8683 0.102419C25.0409 0.173904 25.1977 0.278682 25.3298 0.41077C25.4619 0.542858 25.5667 0.699669 25.6382 0.87225C25.7097 1.04483 25.7465 1.2298 25.7465 1.4166C25.7465 1.6034 25.7097 1.78837 25.6382 1.96095C25.5667 2.13354 25.4619 2.29035 25.3298 2.42243L13.7557 13.9966C12.9598 14.7935 12.5127 15.8737 12.5127 16.9999C12.5127 18.1262 12.9598 19.2064 13.7557 20.0032L25.3298 31.5774C25.4626 31.7091 25.568 31.8658 25.6399 32.0384C25.7118 32.211 25.7489 32.3962 25.7489 32.5832C25.7489 32.7702 25.7118 32.9554 25.6399 33.128C25.568 33.3007 25.4626 33.4574 25.3298 33.5891C25.1974 33.7204 25.0405 33.8242 24.8679 33.8947C24.6953 33.9652 24.5104 34.001 24.324 33.9999Z" fill="white"/>
</g>
<defs>
<clipPath id="clip0_211_663">
<rect width="34" height="34" fill="white"/>
</clipPath>
</defs>
</svg>
