<svg width="34" height="34" viewBox="0 0 34 34" fill="none" xmlns="http://www.w3.org/2000/svg">
<g clip-path="url(#clip0_211_666)">
<path d="M9.91643 33.9999C9.72998 34.001 9.54516 33.9652 9.37256 33.8947C9.19996 33.8242 9.04297 33.7204 8.91059 33.5891C8.77781 33.4574 8.67242 33.3007 8.6005 33.128C8.52858 32.9554 8.49155 32.7702 8.49155 32.5832C8.49155 32.3962 8.52858 32.211 8.6005 32.0384C8.67242 31.8658 8.77781 31.7091 8.91059 31.5774L20.4848 20.0032C21.2806 19.2064 21.7277 18.1262 21.7277 16.9999C21.7277 15.8737 21.2806 14.7935 20.4848 13.9966L8.91059 2.42243C8.64383 2.15567 8.49396 1.79386 8.49396 1.4166C8.49396 1.03934 8.64383 0.677533 8.91059 0.41077C9.17736 0.144007 9.53917 -0.00585937 9.91643 -0.00585938C10.2937 -0.00585938 10.6555 0.144007 10.9223 0.41077L22.4964 11.9849C23.1561 12.6429 23.6794 13.4246 24.0365 14.2851C24.3936 15.1457 24.5774 16.0682 24.5774 16.9999C24.5774 17.9316 24.3936 18.8542 24.0365 19.7147C23.6794 20.5753 23.1561 21.3569 22.4964 22.0149L10.9223 33.5891C10.7899 33.7204 10.6329 33.8242 10.4603 33.8947C10.2877 33.9652 10.1029 34.001 9.91643 33.9999Z" fill="white"/>
</g>
<defs>
<clipPath id="clip0_211_666">
<rect width="34" height="34" fill="white"/>
</clipPath>
</defs>
</svg>
